<?xml version="1.0" standalone="no"?>
<!DOCTYPE svg PUBLIC "-//W3C//DTD SVG 20010904//EN"
        "http://www.w3.org/TR/2001/REC-SVG-20010904/DTD/svg10.dtd">
<svg version="1.0" xmlns="http://www.w3.org/2000/svg"
     width="483.000000pt" height="517.000000pt" viewBox="0 0 483.000000 517.000000"
     preserveAspectRatio="xMidYMid meet">

    <g transform="translate(0.000000,517.000000) scale(0.100000,-0.100000)"
       fill="#FFFFFF" stroke="none">
        <path d="M2202 4590 c-424 -59 -821 -250 -1130 -545 -128 -121 -289 -324 -351
-442 -16 -30 -14 -33 14 -33 20 0 32 11 53 46 15 25 59 89 98 142 313 425 775
700 1305 777 140 20 410 20 548 -1 437 -64 808 -249 1113 -556 100 -100 239
-273 274 -339 10 -20 22 -29 39 -29 14 0 25 6 25 13 0 20 -111 178 -190 272
-285 337 -688 575 -1135 670 -117 25 -153 28 -365 31 -129 1 -264 -1 -298 -6z"/>
        <path d="M2543 4282 c-16 -10 -43 -64 -37 -74 8 -13 42 -9 47 5 3 10 11 10 39
0 47 -18 72 -16 90 5 38 44 20 95 -21 58 -16 -15 -21 -15 -54 -1 -41 17 -47
18 -64 7z m62 -27 c20 -9 46 -13 58 -9 21 6 21 5 5 -12 -16 -16 -21 -16 -60
-4 -24 8 -49 14 -55 13 -7 0 -13 3 -13 7 0 5 6 11 13 13 6 3 13 6 13 6 1 1 18
-6 39 -14z"/>
        <path d="M1784 4169 c-3 -5 3 -20 11 -33 13 -20 16 -40 11 -88 -3 -35 -6 -72
-6 -83 0 -11 3 -48 6 -83 5 -48 2 -68 -11 -88 -8 -13 -14 -28 -11 -33 3 -4 39
-8 81 -8 64 -1 75 2 75 16 0 9 -5 22 -11 28 -6 6 -11 32 -12 59 -2 48 -2 49
38 62 51 17 74 40 96 97 17 45 17 48 0 88 -31 71 -43 76 -159 75 -57 -1 -105
-5 -108 -9z m74 -21 c9 -9 15 -9 24 0 7 7 33 12 58 12 74 0 110 -55 91 -140
-11 -49 -43 -77 -98 -86 l-43 -6 0 -44 c0 -25 7 -60 14 -79 14 -33 14 -35 -4
-35 -10 0 -23 7 -28 16 -8 14 -10 14 -21 0 -19 -23 -46 -21 -35 2 7 14 9 93 5
170 -1 9 1 45 5 79 4 36 2 75 -4 92 -10 27 -9 31 7 31 9 0 22 -5 29 -12z"/>
        <path d="M1908 4129 c-15 -8 -18 -24 -18 -89 0 -43 4 -82 10 -85 5 -3 23 1 40
10 29 15 30 18 30 85 0 58 -3 71 -19 80 -23 12 -22 12 -43 -1z m37 -80 c0 -53
-3 -64 -17 -67 -16 -3 -18 5 -18 61 0 35 3 67 7 71 18 17 28 -6 28 -65z"/>
        <path d="M2116 4171 c-3 -5 1 -25 9 -45 18 -43 19 -91 1 -131 -10 -24 -10 -36
0 -65 18 -49 17 -111 -2 -138 -9 -13 -13 -26 -9 -30 8 -8 265 -12 265 -4 0 3
-5 20 -12 38 -9 27 -9 38 2 59 17 32 12 36 -44 39 -58 3 -72 -4 -57 -33 13
-24 7 -41 -15 -41 -15 0 -19 45 -8 88 6 21 11 23 45 17 l39 -7 0 47 0 47 -39
-7 -40 -7 -6 46 c-4 25 -5 53 -1 62 10 25 26 5 23 -29 l-2 -32 55 0 c49 0 55
2 51 20 -5 32 -4 68 4 91 6 21 4 22 -77 22 -45 0 -88 -4 -95 -9 -7 -7 -14 -6
-18 1 -8 12 -62 13 -69 1z m64 -23 c15 -10 22 -10 32 0 15 15 70 16 86 0 9 -9
15 -9 24 0 19 19 23 14 23 -32 0 -40 -2 -43 -27 -44 -24 -1 -28 3 -28 28 0 32
-15 41 -47 29 -25 -9 -26 -17 -17 -96 7 -52 8 -53 39 -53 21 0 32 -5 32 -15 0
-10 -11 -15 -33 -15 l-32 0 -7 -66 c-6 -54 -5 -69 9 -82 23 -24 50 -4 56 41 4
28 8 34 19 28 8 -5 19 -7 25 -5 7 3 11 -14 12 -46 0 -51 -4 -58 -23 -39 -8 8
-17 8 -31 0 -27 -15 -65 -14 -80 1 -10 10 -17 10 -32 0 -32 -20 -39 -14 -27
24 8 26 8 53 0 100 -8 45 -8 76 -1 101 10 36 6 100 -8 136 -7 20 8 22 36 5z"/>
        <path d="M2444 4169 c-3 -5 2 -19 10 -31 21 -29 21 -121 1 -152 -13 -20 -13
-25 0 -42 20 -26 20 -123 -1 -152 -8 -12 -13 -26 -10 -31 7 -10 145 -11 151
-1 3 5 -2 21 -10 36 -8 16 -15 54 -15 84 l1 55 24 -29 c46 -57 51 -74 32 -108
-9 -16 -15 -33 -12 -38 7 -11 144 -10 151 1 3 5 -2 22 -11 38 -19 37 -19 107
-1 141 12 21 12 29 0 52 -18 35 -18 105 1 142 8 15 13 32 10 36 -7 11 -144 10
-150 -1 -3 -4 1 -19 10 -33 11 -17 15 -42 13 -82 l-3 -59 -34 54 c-34 53 -35
54 -18 83 9 16 15 33 12 38 -7 11 -144 10 -151 -1z m63 -20 c8 -8 17 -7 31 2
28 17 34 9 20 -27 -10 -27 -7 -36 36 -102 25 -40 51 -70 56 -67 13 8 13 146 0
179 -10 28 5 37 27 15 8 -8 17 -7 31 2 29 18 32 11 19 -39 -8 -31 -8 -56 0
-96 8 -39 9 -66 1 -93 -10 -37 -7 -102 7 -135 9 -22 -8 -24 -28 -3 -13 13 -16
13 -27 0 -18 -22 -44 -20 -35 3 20 47 17 63 -24 117 -23 30 -44 62 -47 70 -4
8 -10 15 -16 15 -11 0 -6 -177 6 -202 11 -23 -19 -25 -32 -2 -8 14 -10 14 -21
0 -19 -23 -46 -21 -35 2 5 9 8 47 7 85 -2 83 -2 101 0 185 1 37 -2 75 -7 85
-9 20 13 24 31 6z"/>
        <path d="M2926 4173 c-2 -3 -2 -20 1 -38 3 -19 -2 -63 -12 -100 -17 -61 -20
-66 -42 -60 -22 5 -23 3 -23 -40 0 -26 5 -45 11 -45 16 0 2 -49 -26 -89 -13
-19 -22 -38 -19 -42 2 -4 34 -7 72 -6 61 2 67 4 64 22 -2 11 -6 34 -9 50 -6
42 12 87 35 83 24 -5 44 -70 31 -105 -17 -44 -7 -51 76 -50 42 0 78 4 81 8 2
5 -8 28 -23 51 -21 34 -27 56 -28 103 -1 41 -7 69 -20 88 -13 21 -19 49 -20
100 l-1 72 -72 1 c-39 1 -73 0 -76 -3z m62 -29 c8 -14 10 -14 21 0 27 32 41
19 41 -36 0 -32 9 -71 21 -98 12 -26 22 -69 23 -101 1 -37 9 -68 24 -93 26
-44 22 -55 -13 -36 -20 10 -28 11 -37 2 -25 -25 -35 -12 -35 41 0 75 -15 107
-52 107 -42 0 -56 -24 -56 -97 0 -64 -3 -71 -22 -52 -8 8 -17 8 -31 0 -30 -16
-37 -13 -20 7 22 24 50 111 43 133 -4 11 -2 19 3 19 15 0 46 111 47 167 0 43
3 53 17 53 9 0 21 -7 26 -16z"/>
        <path d="M2953 3995 c-11 -50 -9 -55 22 -55 12 0 24 2 27 5 9 10 -15 95 -27
95 -6 0 -16 -20 -22 -45z"/>
        <path d="M2856 3455 l6 -45 -53 0 c-30 0 -148 -5 -264 -10 -439 -21 -923 -40
-1005 -40 l-85 0 -20 36 c-22 42 -77 92 -83 75 -2 -6 3 -32 12 -57 9 -26 13
-50 10 -55 -3 -5 -43 -9 -90 -9 -66 0 -86 -3 -90 -15 -4 -8 12 -64 34 -123
l40 -107 93 2 c95 3 109 -2 109 -38 0 -13 -16 -17 -81 -22 -45 -4 -84 -9 -87
-12 -5 -4 73 -233 82 -243 3 -2 35 1 71 7 74 13 85 10 85 -24 0 -20 -6 -25
-37 -30 -59 -9 -68 -18 -68 -61 l0 -39 49 -3 48 -3 -7 -57 c-11 -93 -45 -230
-86 -345 -22 -60 -37 -112 -34 -117 6 -9 92 -40 112 -40 8 0 16 8 20 18 47
136 152 261 267 317 82 40 149 55 250 55 184 0 353 -96 390 -219 30 -103 15
-188 -58 -323 -27 -51 -38 -80 -31 -87 6 -5 51 -13 101 -16 83 -7 92 -6 98 11
12 32 57 307 57 354 1 86 -19 133 -127 288 -22 32 -50 91 -63 132 l-23 73
-117 -6 c-74 -3 -109 -2 -96 4 17 8 241 62 642 156 62 15 116 24 119 20 6 -5
-37 -157 -63 -223 -3 -9 7 -19 31 -29 19 -8 37 -15 39 -15 2 0 19 29 36 64 63
129 167 191 316 190 168 0 283 -102 262 -231 -4 -21 -20 -65 -37 -99 -16 -34
-30 -66 -30 -71 0 -13 111 -26 122 -15 18 18 28 89 28 208 l0 120 -45 64 c-24
35 -52 85 -61 112 -13 40 -20 48 -40 48 -13 0 -24 5 -24 10 0 6 7 10 15 10 8
0 15 7 15 15 0 13 -24 15 -152 15 -88 0 -184 -6 -225 -14 -59 -11 -75 -11 -83
-1 -13 16 -7 20 40 30 19 4 38 9 42 11 7 4 -39 133 -53 148 -5 5 -25 10 -45
10 -47 1 -57 24 -15 32 17 4 31 12 31 19 0 6 -13 43 -28 81 -26 63 -31 69 -58
70 -47 1 -49 2 -68 38 -10 19 -25 37 -33 40 -12 5 -13 -2 -7 -39z m-1396 -155
c0 -5 -7 -10 -15 -10 -8 0 -15 5 -15 10 0 6 7 10 15 10 8 0 15 -4 15 -10z
m1470 -86 c0 -8 -3 -14 -8 -14 -15 0 -619 -61 -697 -70 -44 -5 -127 -14 -185
-19 -58 -6 -172 -17 -255 -26 -200 -20 -212 -20 -220 6 -4 11 -5 22 -3 24 8 8
1349 124 1361 118 4 -2 7 -11 7 -19z m-1430 -35 c0 -5 -7 -9 -15 -9 -15 0 -20
12 -9 23 8 8 24 -1 24 -14z m1485 -9 c3 -5 1 -10 -4 -10 -6 0 -11 5 -11 10 0
6 2 10 4 10 3 0 8 -4 11 -10z m25 -100 c0 -5 -4 -10 -10 -10 -5 0 -10 5 -10
10 0 6 5 10 10 10 6 0 10 -4 10 -10z m-1458 -72 c-15 -15 -26 -4 -18 18 5 13
9 15 18 6 9 -9 9 -15 0 -24z m1418 8 c0 -16 -14 -22 -80 -31 -25 -3 -135 -21
-245 -40 -837 -142 -989 -165 -997 -153 -10 17 -10 36 1 42 5 4 101 19 213 36
206 30 252 36 758 114 323 50 350 52 350 32z m-35 -96 c-16 -4 -39 -8 -50 -8
-16 0 -15 2 5 8 14 4 36 8 50 8 22 0 22 -1 -5 -8z m-1345 -35 c0 -8 -7 -15
-15 -15 -16 0 -20 12 -8 23 11 12 23 8 23 -8z m1107 -11 c-3 -3 -12 -4 -19 -1
-8 3 -5 6 6 6 11 1 17 -2 13 -5z m-54 -11 c-7 -2 -19 -2 -25 0 -7 3 -2 5 12 5
14 0 19 -2 13 -5z m-50 -10 c-7 -2 -21 -2 -30 0 -10 3 -4 5 12 5 17 0 24 -2
18 -5z m-71 -13 c-13 -6 -78 -21 -145 -34 -67 -14 -198 -41 -292 -60 -162 -33
-175 -35 -288 -27 -65 5 -121 12 -125 15 -3 4 59 6 138 6 150 -2 167 1 525 74
151 31 166 33 190 34 18 1 17 0 -3 -8z m-768 -209 c3 -4 -1 -17 -9 -27 -15
-19 -15 -19 -30 0 -8 11 -15 23 -15 28 0 11 47 10 54 -1z"/>
        <path d="M606 2428 c1 -55 3 -63 21 -66 42 -6 63 43 47 106 -5 17 -14 22 -38
22 l-31 0 1 -62z m52 0 c-2 -18 -7 -33 -13 -33 -5 0 -11 15 -13 33 -3 24 1 32
13 32 12 0 16 -8 13 -32z"/>
        <path d="M706 2428 c1 -63 1 -63 33 -66 28 -3 31 -1 31 24 0 22 -3 24 -14 15
-11 -9 -16 -9 -21 0 -4 6 -1 16 6 21 11 7 11 11 2 15 -21 8 -15 26 7 20 15 -4
20 0 20 14 0 15 -7 19 -33 19 l-33 0 2 -62z"/>
        <path d="M791 2472 c-12 -23 4 -52 29 -52 21 0 27 -15 10 -25 -6 -4 -17 -1
-25 5 -13 10 -15 8 -15 -14 0 -21 5 -26 24 -26 48 0 61 54 18 76 -37 18 -39
27 -4 21 27 -6 32 -4 32 13 0 27 -55 28 -69 2z"/>
        <path d="M870 2481 c0 -5 4 -12 9 -16 6 -3 8 -18 6 -33 -11 -67 -11 -67 16
-70 36 -4 51 18 47 75 -3 48 -3 48 -40 51 -21 2 -38 -1 -38 -7z m58 -53 c-2
-18 -7 -33 -13 -33 -5 0 -11 15 -13 33 -3 24 1 32 13 32 12 0 16 -8 13 -32z"/>
        <path d="M976 2428 c1 -62 1 -63 30 -63 20 0 30 6 32 19 3 14 0 17 -12 13 -20
-8 -33 12 -15 25 11 7 11 11 2 15 -21 8 -15 26 6 20 11 -3 22 1 25 8 7 19 -3
25 -39 25 l-31 0 2 -62z"/>
        <path d="M3860 2472 c0 -15 5 -18 25 -14 33 6 32 -14 -1 -22 -21 -6 -25 -11
-22 -39 3 -28 7 -32 33 -32 21 0 31 5 33 18 3 15 -1 17 -22 11 -20 -5 -26 -2
-26 9 0 9 10 17 23 19 17 2 22 10 22 33 0 27 -4 30 -32 33 -27 3 -33 0 -33
-16z"/>
        <path d="M3956 2475 c-11 -29 -7 -80 8 -101 12 -15 18 -17 33 -8 14 9 18 24
18 65 0 51 -2 54 -26 57 -17 2 -29 -3 -33 -13z m42 -47 c-2 -18 -7 -33 -13
-33 -5 0 -11 15 -13 33 -3 24 1 32 13 32 12 0 16 -8 13 -32z"/>
        <path d="M4047 2483 c-18 -18 -6 -32 23 -26 19 3 30 1 30 -6 0 -6 -11 -11 -25
-11 -18 0 -26 -7 -31 -25 -9 -35 2 -55 28 -55 36 0 52 15 41 35 -7 12 -13 14
-17 6 -10 -16 -36 -14 -36 4 0 8 9 15 20 15 23 0 39 26 33 51 -5 19 -52 27
-66 12z"/>
        <path d="M4130 2469 c0 -16 4 -19 20 -14 22 7 28 -10 8 -19 -10 -5 -10 -7 0
-12 14 -7 16 -34 2 -34 -5 0 -10 5 -10 10 0 6 -4 10 -10 10 -15 0 -12 -26 4
-39 29 -24 46 -2 46 60 0 59 0 59 -30 59 -24 0 -30 -4 -30 -21z"/>
        <path d="M3925 1835 c-22 -8 -41 -15 -42 -15 -2 0 -11 -17 -22 -39 -11 -22
-23 -71 -27 -115 -4 -43 -15 -94 -25 -114 -17 -33 -17 -37 -3 -53 10 -11 20
-51 25 -101 18 -155 58 -198 183 -198 106 0 150 32 172 127 8 32 14 75 14 96
0 22 7 54 16 73 13 27 14 37 4 48 -6 8 -17 60 -24 115 -20 148 -49 181 -164
188 -44 2 -81 -2 -107 -12z m126 -82 c17 -20 17 -170 -1 -202 -8 -17 -8 -31 1
-59 17 -50 16 -176 -1 -197 -19 -23 -62 -15 -78 15 -16 30 -10 157 9 188 10
17 10 26 0 49 -18 39 -25 162 -12 196 8 21 17 27 40 27 15 0 35 -7 42 -17z"/>
        <path d="M632 1831 c-11 -6 -9 -15 7 -42 27 -44 30 -183 5 -230 -14 -28 -14
-34 0 -64 24 -50 22 -190 -4 -232 -19 -32 -19 -33 0 -43 20 -11 46 -5 72 18
16 13 21 13 45 -3 36 -24 146 -25 190 -2 34 18 53 44 53 72 0 9 7 32 16 50 14
30 14 36 0 64 -9 16 -16 36 -16 44 0 8 -10 26 -21 41 l-21 27 21 23 c11 12 21
31 21 42 0 10 7 32 16 49 13 26 13 33 1 60 -8 16 -19 43 -23 59 -13 42 -52 66
-117 73 -41 4 -69 1 -101 -11 -41 -16 -47 -16 -75 -2 -34 18 -50 20 -69 7z
m236 -77 c19 -13 22 -24 22 -78 0 -78 -19 -107 -70 -109 l-35 -2 -3 70 c-4 87
3 113 31 125 30 12 30 12 55 -6z m-32 -264 c8 0 23 -9 34 -20 16 -16 20 -33
20 -90 0 -62 -3 -71 -24 -85 -27 -18 -69 -7 -80 20 -8 23 -8 170 1 179 4 3 13
4 21 1 7 -3 20 -5 28 -5z"/>
        <path d="M3620 1789 c-30 -5 -70 -6 -88 -2 -20 3 -44 0 -58 -8 -19 -10 -27
-10 -36 -1 -12 12 -60 16 -71 6 -3 -3 3 -20 14 -37 24 -40 26 -158 4 -201 -14
-26 -14 -33 0 -62 22 -48 20 -161 -4 -198 -11 -17 -18 -33 -15 -38 9 -14 46
-9 65 8 16 15 20 15 41 0 47 -33 84 -9 54 36 -18 28 -31 164 -19 197 9 23 12
21 56 -42 72 -103 71 -102 48 -149 -11 -23 -18 -45 -15 -50 9 -14 46 -9 66 9
17 15 19 15 36 0 20 -18 57 -23 66 -8 3 4 -4 25 -14 47 -24 47 -26 130 -5 181
14 33 14 40 -1 79 -21 56 -16 164 10 193 24 27 11 44 -29 38 -18 -3 -37 -2
-41 2 -5 4 -34 4 -64 0z m-34 -29 c34 0 57 -141 35 -219 -6 -23 -11 -18 -59
57 -29 44 -52 91 -52 104 0 32 28 71 47 64 8 -3 21 -6 29 -6z"/>
        <path d="M1160 1778 l-25 -11 24 -6 c44 -12 46 -30 17 -142 -15 -57 -31 -108
-36 -112 -4 -5 -17 -4 -28 2 -24 13 -40 -2 -23 -22 6 -8 6 -18 1 -27 -15 -24
-12 -32 10 -25 14 4 20 2 20 -9 0 -26 -40 -122 -60 -146 -11 -12 -17 -27 -14
-31 8 -13 36 -10 57 5 16 12 23 12 47 -2 36 -21 58 -6 41 26 -14 26 -14 86 0
135 9 35 12 37 49 37 39 0 40 0 56 -56 13 -47 14 -64 5 -96 -7 -21 -9 -43 -6
-48 10 -15 46 -12 66 6 17 15 20 15 43 0 47 -30 94 -13 62 22 -42 47 -74 184
-52 221 4 6 -2 23 -14 38 -30 39 -52 126 -48 191 3 49 0 57 -16 60 -10 2 -30
-2 -43 -9 -19 -10 -28 -10 -43 -1 -24 14 -56 14 -90 0z m89 -200 c4 -13 11
-35 15 -50 6 -25 4 -28 -19 -28 -27 0 -30 12 -19 69 8 37 12 38 23 9z"/>
        <path d="M1506 1741 c-4 -6 0 -21 8 -33 21 -29 21 -152 2 -190 -13 -24 -13
-32 0 -55 19 -37 18 -150 -1 -187 -21 -41 -6 -54 41 -37 26 9 39 10 47 2 12
-12 50 -15 60 -5 3 4 -1 21 -10 38 -11 20 -16 59 -17 111 -1 80 -1 80 26 83
35 4 43 -13 57 -111 12 -88 22 -112 52 -128 22 -11 65 -5 87 13 10 9 9 14 -3
28 -9 10 -23 57 -30 105 -9 51 -22 96 -31 106 -15 17 -16 21 -2 37 46 52 41
157 -9 204 -25 24 -30 24 -188 17 -16 0 -42 2 -56 6 -16 4 -29 2 -33 -4z m192
-63 c7 -7 12 -39 12 -75 0 -57 -2 -64 -24 -75 -44 -19 -56 -6 -56 66 0 81 32
120 68 84z"/>
        <path d="M3155 1740 c-3 -5 1 -20 9 -32 22 -31 22 -165 0 -196 -14 -20 -14
-24 0 -44 22 -31 22 -160 0 -193 -27 -41 8 -61 53 -30 18 13 22 13 33 0 13
-15 51 -20 63 -8 4 3 -1 18 -10 32 -22 33 -25 156 -4 194 12 23 12 31 0 54
-21 40 -18 161 5 195 17 27 17 28 0 35 -9 3 -29 0 -44 -9 -23 -13 -29 -13 -45
-2 -22 16 -51 18 -60 4z"/>
        <path d="M1897 1724 c-4 -4 1 -19 10 -33 22 -33 24 -146 4 -184 -12 -23 -12
-31 0 -54 21 -39 18 -151 -5 -185 -16 -25 -17 -28 -2 -34 9 -3 30 -1 47 6 23
10 33 10 42 1 6 -6 22 -11 35 -11 21 0 24 3 18 28 -20 82 -27 127 -24 160 3
32 7 37 30 40 33 4 41 -13 52 -98 14 -111 39 -144 100 -133 31 6 43 27 27 47
-6 7 -17 50 -25 95 -8 46 -22 91 -31 101 -13 15 -13 19 -1 29 7 6 19 32 25 57
10 38 9 55 -5 96 -20 63 -61 84 -139 73 -62 -8 -82 -8 -120 0 -17 4 -33 3 -38
-1z m191 -131 c3 -70 2 -73 -22 -79 -38 -9 -46 2 -46 70 0 66 12 89 45 84 18
-3 20 -12 23 -75z"/>
        <path d="M2845 1720 c-3 -5 1 -20 9 -32 21 -30 22 -155 1 -185 -13 -19 -13
-24 0 -50 20 -38 20 -161 0 -189 -8 -12 -11 -24 -8 -28 12 -11 41 -6 58 10 15
15 17 15 34 0 18 -16 61 -22 61 -8 0 4 -7 16 -15 26 -29 38 -14 191 17 182 62
-19 65 -18 65 28 l0 43 -43 -5 -42 -4 -7 72 c-8 76 0 98 31 86 13 -5 15 -14
10 -44 l-6 -38 49 0 49 1 -5 52 c-4 35 -1 58 7 68 17 20 -10 31 -40 15 -15 -8
-29 -8 -54 1 -29 11 -38 10 -60 -5 -24 -15 -29 -15 -48 -1 -26 17 -54 20 -63
5z"/>
        <path d="M2543 1704 c-36 -18 -49 -46 -58 -129 -3 -33 -12 -69 -19 -80 -12
-17 -12 -24 0 -39 7 -10 16 -49 20 -87 5 -53 12 -75 34 -101 27 -32 31 -33
100 -33 68 0 73 2 100 32 23 25 29 44 35 100 3 37 11 78 17 89 6 14 7 28 0 40
-5 11 -13 48 -16 84 -8 73 -28 113 -63 129 -34 16 -113 13 -150 -5z m108 -66
c8 -14 9 -42 4 -82 -4 -34 -6 -74 -5 -91 8 -97 4 -156 -10 -165 -21 -13 -26
-12 -46 7 -14 14 -15 28 -9 82 8 83 8 93 0 167 -8 68 4 104 35 104 11 0 25
-10 31 -22z"/>
        <path d="M2275 1688 c26 -84 29 -120 13 -166 -10 -27 -14 -52 -9 -61 24 -45
22 -131 -4 -193 -10 -25 22 -35 42 -15 15 15 19 15 44 0 15 -9 34 -13 43 -10
15 6 15 9 0 39 -21 39 -23 150 -4 173 10 12 10 21 0 44 -18 44 -15 146 4 176
15 23 15 26 1 31 -9 4 -28 1 -42 -5 -18 -8 -29 -9 -37 -1 -5 5 -21 10 -34 10
-21 0 -23 -3 -17 -22z"/>
        <path d="M1137 1134 c-20 -21 -4 -55 46 -97 218 -186 569 -357 858 -417 257
-53 592 -53 848 0 285 60 611 216 846 407 48 39 61 55 63 81 4 39 -7 40 -39 6
-36 -38 -192 -152 -289 -211 -212 -127 -473 -218 -745 -258 -137 -21 -432 -16
-578 8 -175 30 -350 84 -531 166 -133 60 -343 198 -432 283 -22 21 -43 35 -47
32z"/>
    </g>
</svg>
